  0
SECTION
  2
HEADER
  9
$ACADVER
  1
AC1015
  0
ENDSEC
  0
SECTION
  2
ENTITIES
0
LWPOLYLINE
5
64
8
PARCELAS
90
4
70
1
10
700100.000000
20
4400200.000000
10
700200.000000
20
4400200.000000
10
700200.000000
20
4400100.000000
10
700100.000000
20
4400100.000000
0
TEXT
5
65
8
0
10
700130.000000
20
4400230.000000
30
0.0
40
2.5
1
0022048-0VESLHCC
50
0.00
72
0
73
0
0
LWPOLYLINE
5
66
8
PARCELAS
90
4
70
1
10
700250.000000
20
4400300.000000
10
700380.000000
20
4400320.000000
10
700370.000000
20
4400420.000000
10
700240.000000
20
4400400.000000
0
TEXT
5
67
8
0
10
700280.000000
20
4400340.000000
30
0.0
40
2.5
1
0025474-0VESLHCC
50
15.00
72
0
73
0
0
LWPOLYLINE
5
68
8
PARCELAS
90
4
70
1
10
700150.000000
20
4400070.000000
10
700330.000000
20
4400080.000000
10
700340.000000
20
4400150.000000
10
700160.000000
20
4400140.000000
0
TEXT
5
69
8
0
10
700200.000000
20
4400090.000000
30
0.0
40
2.5
1
FR-3252
50
-20.00
72
0
73
0
0
LWPOLYLINE
5
6A
8
PARCELAS
90
4
70
1
10
699980.000000
20
4400050.000000
10
700090.000000
20
4400060.000000
10
700100.000000
20
4400150.000000
10
699990.000000
20
4400140.000000
0
TEXT
5
6B
8
0
10
700010.000000
20
4400080.000000
30
0.0
40
2.5
1
FB-6674
50
45.00
72
0
73
0
0
LWPOLYLINE
5
6C
8
PARCELAS
90
4
70
1
10
699850.000000
20
4400000.000000
10
699950.000000
20
4400000.000000
10
699950.000000
20
4400120.000000
10
699850.000000
20
4400120.000000
0
TEXT
5
6D
8
0
10
699870.000000
20
4400050.000000
30
0.0
40
2.5
1
0022049-0VESLHCC
50
90.00
72
0
73
0
0
LWPOLYLINE
5
6E
8
PARCELAS
90
4
70
1
10
699900.000000
20
4399880.000000
10
700020.000000
20
4399895.000000
10
700010.000000
20
4399990.000000
10
699890.000000
20
4399975.000000
0
TEXT
5
6F
8
0
10
699940.000000
20
4399910.000000
30
0.0
40
2.5
1
0022068-0VEST_HCC
50
-45.00
72
0
73
0
0
LWPOLYLINE
5
70
8
PARCELAS
90
4
70
1
10
699800.000000
20
4399850.000000
10
699900.000000
20
4399860.000000
10
699890.000000
20
4399950.000000
10
699790.000000
20
4399940.000000
0
TEXT
5
71
8
0
10
699825.000000
20
4399885.000000
30
0.0
40
2.5
1
0412069-8VEST_HCC
50
33.00
72
0
73
0
0
LWPOLYLINE
5
72
8
PARCELAS
90
4
70
1
10
700050.000000
20
4399870.000000
10
700190.000000
20
4399880.000000
10
700180.000000
20
4399970.000000
10
700040.000000
20
4399960.000000
0
MTEXT
5
73
8
0
10
700100.000000
20
4399895.000000
30
0.0
40
2.5
41
50.0
71
1
1
{\fArial;0412069-0VEST_HCC}
50
-10.00
  0
ENDSEC
  0
EOF
